# Blender 3.4.0
# www.blender.org
mtllib korab-test.mtl
o Cube
v 10.000000 10.000000 -21.000000
v 6.809461 -10.000000 -21.000000
v 10.000000 10.000000 40.000000
v 6.809461 -10.000000 40.000000
v -10.000000 10.000000 -21.000000
v -6.809461 -10.000000 -21.000000
v -10.000000 10.000000 40.000000
v -6.809461 -10.000000 40.000000
v 0.000000 -10.000000 -40.000000
v 0.000000 10.000000 -40.000000
vn -0.0000 -0.0000 1.0000
vn -0.9875 -0.1575 -0.0000
vn -0.0000 -1.0000 -0.0000
vn 0.9875 -0.1575 -0.0000
vn -0.0000 1.0000 -0.0000
vn 0.9121 -0.0728 -0.4035
vn -0.9121 -0.0728 -0.4035
vt 0.625000 0.500000
vt 0.000000 0.000000
vt 0.375000 0.500000
vt 0.625000 0.750000
vt 0.000000 0.000000
vt 0.375000 0.750000
vt 0.875000 0.500000
vt 0.625000 0.250000
vt 0.000000 0.000000
vt 0.125000 0.500000
vt 0.375000 0.250000
vt 0.625000 1.000000
vt 0.625000 0.000000
vt 0.000000 0.000000
vt 0.375000 1.000000
vt 0.375000 0.000000
vt 0.125000 0.750000
vt 0.375000 0.500000
vt 0.625000 0.500000
s 0
usemtl Material
f 4/6/1 3/4/1 7/12/1 8/15/1
f 8/16/2 7/13/2 5/8/2 6/11/2
f 6/10/3 2/3/3 4/6/3 8/17/3
f 2/3/4 1/1/4 3/4/4 4/6/4
f 5/7/5 1/1/5 10/19/5
f 1/1/6 2/3/6 9/18/6 10/19/6
f 2/3/3 6/10/3 9/18/3
f 6/11/7 5/8/7 10/19/7 9/18/7
f 1/2/5 5/9/5 7/14/5 3/5/5
o Cube.001
v 10.000000 10.000000 -21.000000
v 10.000000 10.000000 40.000000
v -10.000000 10.000000 -21.000000
v -10.000000 10.000000 40.000000
v 10.000000 28.000002 40.000000
v -10.000000 28.000002 40.000000
v 10.000000 28.000002 -21.000000
v -10.000000 28.000002 -21.000000
v 7.983453 12.016546 -21.000000
v -7.983453 12.016546 -21.000000
v -7.983453 25.983456 -21.000000
v 7.983453 25.983456 -21.000000
v -7.983453 12.016546 40.000000
v 7.983453 12.016546 40.000000
v 7.983453 25.983456 40.000000
v -7.983453 25.983456 40.000000
v -10.000000 12.016546 -18.983452
v -10.000000 12.016546 37.983452
v -10.000000 25.983456 37.983452
v -10.000000 25.983456 -18.983452
v 10.000000 12.016546 37.983452
v 10.000000 12.016546 -18.983452
v 10.000000 25.983456 -18.983452
v 10.000000 25.983456 37.983452
v 9.717157 10.000000 -20.717155
v 9.717157 10.000000 39.717155
v -9.717157 10.000000 -20.717155
v -9.717157 10.000000 39.717155
v 9.769060 27.769062 39.769062
v -9.769060 27.769062 39.769062
v 9.769060 27.769062 -20.769060
v -9.769060 27.769062 -20.769060
v 7.983453 12.016546 -20.599998
v -7.983453 12.016546 -20.599998
v -7.983453 25.983456 -20.599998
v 7.983453 25.983456 -20.599998
v -7.983453 12.016546 39.599998
v 7.983453 12.016546 39.599998
v 7.983453 25.983456 39.599998
v -7.983453 25.983456 39.599998
v -9.599999 12.016546 -18.983452
v -9.599999 12.016546 37.983452
v -9.599999 25.983456 37.983452
v -9.599999 25.983456 -18.983452
v 9.599999 12.016546 37.983452
v 9.599999 12.016546 -18.983452
v 9.599999 25.983456 -18.983452
v 9.599999 25.983456 37.983452
vn -0.0000 1.0000 -0.0000
vn -0.0000 -0.0000 -1.0000
vn -0.0000 -0.0000 1.0000
vn -1.0000 -0.0000 -0.0000
vn 1.0000 -0.0000 -0.0000
vn -0.0000 -1.0000 -0.0000
vn -0.0000 -0.0580 0.9983
vn -0.0812 0.0015 0.9967
vn -0.0000 0.0943 0.9955
vn 0.0812 0.0015 0.9967
vn -0.0000 -0.0580 -0.9983
vn 0.0812 0.0015 -0.9967
vn -0.0000 0.0943 -0.9955
vn -0.0812 0.0015 -0.9967
vn 0.9983 -0.0580 -0.0000
vn 0.9967 0.0015 0.0812
vn 0.9955 0.0943 -0.0000
vn 0.9967 0.0015 -0.0812
vn -0.9983 -0.0580 -0.0000
vn -0.9967 0.0015 -0.0812
vn -0.9955 0.0943 -0.0000
vn -0.9967 0.0015 0.0812
vt 0.625000 0.500000
vt 0.625000 0.750000
vt 0.625000 0.250000
vt 0.875000 0.500000
vt 0.625000 1.000000
vt 0.625000 0.000000
vt 0.625000 0.750000
vt 0.875000 0.750000
vt 0.625000 1.000000
vt 0.625000 0.000000
vt 0.625000 0.500000
vt 0.875000 0.500000
vt 0.625000 0.250000
vt 0.650207 0.500000
vt 0.849793 0.500000
vt 0.849793 0.500000
vt 0.650207 0.500000
vt 0.625000 0.974793
vt 0.625000 0.775207
vt 0.625000 0.775207
vt 0.625000 0.974793
vt 0.625000 0.241735
vt 0.625000 0.008265
vt 0.625000 0.008265
vt 0.625000 0.241735
vt 0.625000 0.741735
vt 0.625000 0.508265
vt 0.625000 0.508265
vt 0.625000 0.741735
vt 0.625000 0.500000
vt 0.625000 0.750000
vt 0.625000 0.250000
vt 0.875000 0.500000
vt 0.625000 1.000000
vt 0.625000 0.000000
vt 0.625000 0.750000
vt 0.875000 0.750000
vt 0.625000 1.000000
vt 0.625000 0.000000
vt 0.625000 0.500000
vt 0.875000 0.500000
vt 0.625000 0.250000
vt 0.650207 0.500000
vt 0.849793 0.500000
vt 0.849793 0.500000
vt 0.650207 0.500000
vt 0.625000 0.974793
vt 0.625000 0.775207
vt 0.625000 0.775207
vt 0.625000 0.974793
vt 0.625000 0.241735
vt 0.625000 0.008265
vt 0.625000 0.008265
vt 0.625000 0.241735
vt 0.625000 0.741735
vt 0.625000 0.508265
vt 0.625000 0.508265
vt 0.625000 0.741735
s 0
usemtl Material
f 17/30/8 18/31/8 16/27/8 15/26/8
f 11/20/9 13/23/9 20/34/9 19/33/9
f 13/23/9 18/31/9 21/35/9 20/34/9
f 18/31/9 17/30/9 22/36/9 21/35/9
f 17/30/9 11/20/9 19/33/9 22/36/9
f 14/24/10 12/21/10 24/38/10 23/37/10
f 12/21/10 15/26/10 25/39/10 24/38/10
f 15/26/10 16/28/10 26/40/10 25/39/10
f 16/28/10 14/24/10 23/37/10 26/40/10
f 13/22/11 14/25/11 28/42/11 27/41/11
f 14/25/11 16/29/11 29/43/11 28/42/11
f 16/29/11 18/32/11 30/44/11 29/43/11
f 18/32/11 13/22/11 27/41/11 30/44/11
f 12/21/12 11/20/12 32/46/12 31/45/12
f 11/20/12 17/30/12 33/47/12 32/46/12
f 17/30/12 15/26/12 34/48/12 33/47/12
f 15/26/12 12/21/12 31/45/12 34/48/12
f 41/59/13 39/55/13 40/56/13 42/60/13
f 35/49/14 43/62/14 44/63/14 37/52/14
f 37/52/15 44/63/15 45/64/15 42/60/15
f 42/60/16 45/64/16 46/65/16 41/59/16
f 41/59/17 46/65/17 43/62/17 35/49/17
f 38/53/18 47/66/18 48/67/18 36/50/18
f 36/50/19 48/67/19 49/68/19 39/55/19
f 39/55/20 49/68/20 50/69/20 40/57/20
f 40/57/21 50/69/21 47/66/21 38/53/21
f 37/51/22 51/70/22 52/71/22 38/54/22
f 38/54/23 52/71/23 53/72/23 40/58/23
f 40/58/24 53/72/24 54/73/24 42/61/24
f 42/61/25 54/73/25 51/70/25 37/51/25
f 36/50/26 55/74/26 56/75/26 35/49/26
f 35/49/27 56/75/27 57/76/27 41/59/27
f 41/59/28 57/76/28 58/77/28 39/55/28
f 39/55/29 58/77/29 55/74/29 36/50/29
f 12/21/13 14/24/13 38/53/13 36/50/13
f 11/20/13 12/21/13 36/50/13 35/49/13
f 14/25/13 13/22/13 37/51/13 38/54/13
f 13/23/13 11/20/13 35/49/13 37/52/13
f 19/33/8 20/34/8 44/63/8 43/62/8
f 22/36/11 19/33/11 43/62/11 46/65/11
f 20/34/12 21/35/12 45/64/12 44/63/12
f 21/35/13 22/36/13 46/65/13 45/64/13
f 23/37/8 24/38/8 48/67/8 47/66/8
f 26/40/12 23/37/12 47/66/12 50/69/12
f 24/38/11 25/39/11 49/68/11 48/67/11
f 25/39/13 26/40/13 50/69/13 49/68/13
f 27/41/8 28/42/8 52/71/8 51/70/8
f 30/44/10 27/41/10 51/70/10 54/73/10
f 28/42/9 29/43/9 53/72/9 52/71/9
f 29/43/13 30/44/13 54/73/13 53/72/13
f 31/45/8 32/46/8 56/75/8 55/74/8
f 34/48/9 31/45/9 55/74/9 58/77/9
f 32/46/10 33/47/10 57/76/10 56/75/10
f 33/47/13 34/48/13 58/77/13 57/76/13
